<svg width="341" height="238" viewBox="0 0 341 238" fill="none" xmlns="http://www.w3.org/2000/svg">
<path d="M236.279 14.6667C248.815 16.4164 260.932 20.4285 272.035 26.5056C273.401 27.2443 274.416 28.4958 274.856 29.9843C275.295 31.4728 275.123 33.076 274.378 34.4372C273.632 35.7986 272.375 36.8073 270.884 37.239C269.393 37.6706 267.792 37.492 266.434 36.7381C246.898 25.9589 224.16 22.4956 202.3 26.9732C180.442 31.4489 160.893 43.5718 147.168 61.164C133.441 78.7546 126.436 100.663 127.408 122.954C128.382 145.246 137.268 166.461 152.475 182.789C167.681 199.118 188.21 209.492 210.375 212.047C232.542 214.603 254.893 209.173 273.417 196.733C291.94 184.292 305.422 165.656 311.442 144.17C317.463 122.683 315.625 99.757 306.262 79.5016L302.131 89.4751L302.131 89.4768C301.115 91.9338 298.563 93.391 295.93 93.0198C294.143 92.7696 292.572 91.7054 291.677 90.1382C290.781 88.5707 290.663 86.679 291.353 85.0115L300.284 63.454C300.875 62.0239 302.011 60.8877 303.44 60.2954C304.87 59.7033 306.476 59.7037 307.906 60.2959L329.463 69.2267C332.439 70.46 333.853 73.8724 332.619 76.8501C331.386 79.826 327.974 81.2395 324.998 80.0064L317.978 77.0982C327.15 98.4167 328.996 122.173 323.23 144.651C317.465 167.129 304.409 187.065 286.107 201.336C267.805 215.605 245.292 223.408 222.082 223.52C198.875 223.633 176.288 216.05 157.848 201.959C139.409 187.867 126.16 168.06 120.176 145.638C114.191 123.215 115.807 99.4421 124.771 78.0337C133.737 56.6273 149.542 38.7952 169.719 27.3308C189.895 15.8644 213.304 11.4082 236.281 14.6612L236.279 14.6667Z" fill="url(#paint0_linear_547_567)"/>
<path d="M0 88H11.1714V127.024H34.0182V137.221H0.033631L0 88Z" fill="#5B4FE9"/>
<path d="M123.632 106.832L115.232 137.221H102.011L90 88H101.759L109.302 123.362L119.146 88H128.991L138.768 123.715L146.596 88H157.667L145.655 137.221H132.367L123.632 106.832Z" fill="#5B4FE9"/>
<path d="M217.907 138.241C211.624 138.241 206.82 136.79 203.493 133.89C201.806 132.38 200.447 130.539 199.502 128.481C198.557 126.423 198.046 124.193 198 121.929H209.138C209.175 122.878 209.368 123.814 209.709 124.701C210.056 125.588 210.583 126.394 211.255 127.069C212.031 127.818 212.959 128.391 213.976 128.749C215.33 129.223 216.759 129.445 218.193 129.404C220.414 129.559 222.629 129.031 224.543 127.893C225.187 127.486 225.72 126.924 226.089 126.257C226.459 125.591 226.655 124.841 226.659 124.079C226.701 123.213 226.406 122.364 225.836 121.71C225.202 121.002 224.43 120.431 223.568 120.031C222.489 119.536 221.363 119.148 220.208 118.871C218.932 118.569 217.604 118.267 216.21 117.981C214.245 117.494 212.229 116.956 210.179 116.301C208.179 115.729 206.285 114.839 204.569 113.664C202.869 112.501 201.456 110.967 200.436 109.178C199.254 106.983 198.674 104.514 198.756 102.022C198.735 99.9586 199.153 97.9144 199.982 96.0247C200.789 94.1836 202.022 92.5601 203.577 91.2873C205.291 89.8924 207.251 88.8325 209.356 88.1627C211.896 87.3486 214.552 86.957 217.218 87.0036C219.937 86.9595 222.644 87.3624 225.231 88.1963C227.401 88.9127 229.405 90.055 231.128 91.5561C232.728 92.952 234.015 94.6691 234.908 96.5958C235.851 98.6747 236.42 100.904 236.587 103.181H225.383C225.323 101.317 224.609 99.5326 223.367 98.1414C222.501 97.3716 221.486 96.7891 220.384 96.4306C219.283 96.0721 218.119 95.9454 216.966 96.0582C215.082 95.9685 213.212 96.4172 211.574 97.3518C210.939 97.7436 210.419 98.2968 210.068 98.9549C209.717 99.613 209.547 100.353 209.575 101.098C209.537 102.046 209.841 102.976 210.431 103.719C211.07 104.457 211.853 105.058 212.733 105.483C213.807 106.004 214.933 106.409 216.093 106.692C217.358 107.028 218.685 107.364 220.074 107.7C222.09 108.137 224.139 108.641 226.223 109.212C228.233 109.756 230.156 110.582 231.934 111.665C233.649 112.696 235.089 114.125 236.134 115.831C237.311 117.87 237.893 120.198 237.814 122.55C237.839 124.69 237.404 126.81 236.537 128.766C235.65 130.68 234.333 132.365 232.69 133.688C230.831 135.16 228.702 136.256 226.424 136.914C223.669 137.786 220.797 138.234 217.907 138.241Z" fill="#5B4FE9"/>
<path d="M160 87.9999H196V98.0793H171.138V107.352H194.136V117.113H171.138V127.192H196.068V137.272H160V87.9999Z" fill="#5B4FE9"/>
<path d="M254.649 137.221V98.1971H240V88H280.452V98.1971H265.787V137.221H254.649Z" fill="#5B4FE9"/>
<path d="M11.171 191.772V205.497H0.0332031V156.275H21.2505C23.7967 156.233 26.3262 156.695 28.6926 157.636C30.7741 158.489 32.656 159.765 34.2193 161.382C35.7153 162.968 36.8602 164.851 37.5791 166.909C39.159 171.394 39.1235 176.29 37.4784 180.751C36.6529 182.933 35.3784 184.917 33.7376 186.576C32.0968 188.234 30.1262 189.529 27.9533 190.377C25.4796 191.336 22.8447 191.809 20.1921 191.772H11.171ZM11.171 166.472V181.591H19.9401C20.9713 181.65 22.0035 181.492 22.9699 181.128C23.9364 180.763 24.8157 180.2 25.5511 179.475C26.9137 177.971 27.6314 175.992 27.5501 173.965C27.5969 172.968 27.4394 171.973 27.0869 171.04C26.7344 170.106 26.1946 169.255 25.5007 168.539C24.7035 167.817 23.7688 167.263 22.7528 166.911C21.7367 166.559 20.6602 166.416 19.5874 166.489L11.171 166.472Z" fill="#5B4FE9"/>
<path d="M54.3448 205.496H43.207V156.275H64.1893C66.6031 156.233 69.0028 156.649 71.2616 157.501C73.2498 158.241 75.0629 159.385 76.5868 160.861C78.0638 162.326 79.2095 164.09 79.9466 166.035C80.7501 168.142 81.1491 170.382 81.1227 172.637C81.1359 174.497 80.8231 176.345 80.1987 178.097C78.9566 181.57 76.5057 184.48 73.2943 186.295C71.5438 187.277 69.6507 187.98 67.6834 188.378L83.3569 205.48H68.8425L54.328 188.68L54.3448 205.496ZM54.3448 166.472V179.626H62.1733C64.2395 179.754 66.2784 179.1 67.885 177.795C68.5505 177.209 69.0791 176.484 69.4333 175.671C69.7874 174.858 69.9585 173.977 69.9344 173.091C69.9657 172.218 69.8196 171.349 69.5048 170.534C69.1901 169.72 68.7133 168.978 68.1034 168.354C67.3484 167.68 66.4652 167.167 65.5068 166.844C64.5484 166.52 63.5344 166.394 62.526 166.472H54.3448Z" fill="#5B4FE9"/>
<path d="M87.2373 205.496V156.275H98.3751V205.496H87.2373Z" fill="#5B4FE9"/>
<path d="M129.706 165.666C127.7 165.647 125.713 166.053 123.876 166.859C122.123 167.626 120.538 168.732 119.212 170.113C117.886 171.494 116.845 173.122 116.149 174.905C115.401 176.792 115.025 178.806 115.04 180.836C115.023 182.898 115.4 184.945 116.149 186.866C116.855 188.677 117.918 190.328 119.273 191.721C120.643 193.099 122.27 194.195 124.061 194.947C125.958 195.749 127.999 196.155 130.058 196.14C132.861 196.2 135.621 195.447 138.004 193.972C140.289 192.521 142.177 190.523 143.498 188.16L152.284 194.224C150.053 197.936 146.958 201.054 143.262 203.313C139.324 205.579 134.836 206.712 130.294 206.588C126.686 206.627 123.107 205.954 119.761 204.606C116.628 203.358 113.773 201.503 111.361 199.147C108.94 196.761 107.023 193.915 105.721 190.775C104.42 187.636 103.761 184.267 103.785 180.869C103.748 177.406 104.434 173.972 105.8 170.79C107.098 167.77 108.963 165.027 111.294 162.709C113.673 160.369 116.494 158.524 119.593 157.283C123.342 155.816 127.356 155.15 131.378 155.33C135.4 155.509 139.34 156.529 142.943 158.325C146.822 160.467 149.996 163.688 152.082 167.598L143.246 173.696C141.878 171.39 140.027 169.407 137.82 167.883C135.41 166.321 132.575 165.546 129.706 165.666Z" fill="#5B4FE9"/>
<path d="M156.466 156.275H192.466V166.354H167.604V175.627H190.585V185.388H167.604V195.467H192.601V205.547H156.533L156.466 156.275Z" fill="#5B4FE9"/>
<path d="M86.1129 102.389C84.8318 99.344 82.9545 96.5866 80.5917 94.2785C78.2288 91.9705 75.4281 90.1585 72.3543 88.9492C69.075 87.6369 65.5717 86.9751 62.0397 87.0006C58.5849 86.9863 55.1607 87.6483 51.9602 88.9492C48.8743 90.1913 46.0567 92.0165 43.6616 94.325C41.266 96.6454 39.3584 99.4212 38.0507 102.489C36.6737 105.699 35.9758 109.16 36.0011 112.653C35.9697 116.059 36.6295 119.437 37.9404 122.581C39.2513 125.726 41.186 128.572 43.6279 130.947C46.0179 133.266 48.8365 135.098 51.9266 136.34C55.1281 137.635 58.5523 138.291 62.006 138.271C65.537 138.303 69.0404 137.647 72.3207 136.34C75.4042 135.104 78.2132 133.272 80.5859 130.947C82.9974 128.548 84.9042 125.69 86.1939 122.542C87.4836 119.395 88.13 116.021 88.0951 112.619C88.1544 109.108 87.4793 105.623 86.1129 102.389ZM73.4968 124.95C72.9424 124.63 71.5647 124.244 71.2792 123.774L67.8187 120.414L60.8806 113.694L60.3598 113.207V103.027C60.1582 101.028 61.2837 99.2135 62.0397 97.3656C62.7956 99.2135 63.9212 101.028 63.7196 103.027V111.762L70.1369 117.944L73.6143 121.304C74.1182 121.573 74.5382 122.984 74.8742 123.471C76.1341 126.126 76.2182 126.159 73.4968 124.966V124.95Z" fill="#FF626A"/>
<defs>
<linearGradient id="paint0_linear_547_567" x1="316" y1="22.5" x2="122.5" y2="198.5" gradientUnits="userSpaceOnUse">
<stop stop-color="#5B4FE9"/>
<stop offset="1" stop-color="#5B4FE9" stop-opacity="0"/>
</linearGradient>
</defs>
</svg>
