<svg width="303" height="105" viewBox="0 0 303 105" fill="none" xmlns="http://www.w3.org/2000/svg">
<path d="M127.065 10.8595C127.066 8.71135 127.671 6.61149 128.805 4.82553C129.939 3.03956 131.551 1.64772 133.436 0.826001C135.322 0.00428268 137.396 -0.210399 139.398 0.209137C141.399 0.628674 143.238 1.66358 144.68 3.18294C146.123 4.7023 147.105 6.63788 147.503 8.74488C147.9 10.8519 147.695 13.0356 146.913 15.02C146.132 17.0043 144.809 18.7001 143.112 19.8929C141.414 21.0856 139.419 21.7218 137.378 21.7208C134.643 21.7191 132.02 20.574 130.086 18.5374C128.152 16.5007 127.066 13.7391 127.065 10.8595Z" fill="#FF2741"/>
<path d="M147.7 102.089C136.3 102.089 127.065 92.7248 127.065 81.1732V33.6685H147.7V102.089Z" fill="black"/>
<path d="M184.627 104.26C173.227 104.26 163.992 94.8181 163.992 83.1717V0C175.392 0 184.627 9.44194 184.627 21.0893V104.26Z" fill="black"/>
<path d="M110.78 102.089C107.14 102.089 103.6 100.925 100.698 98.7735C97.7959 96.6224 95.6918 93.6021 94.7056 90.1725L89.6996 72.7623L71.9113 67.8636C68.4072 66.8985 65.3213 64.8391 63.1235 61.999C60.9256 59.1588 59.7362 55.6936 59.7363 52.1307H110.78V102.089Z" fill="black"/>
<path d="M52.1613 104.26C44.2288 104.26 36.323 102.411 28.9374 98.7428C5.68035 87.187 -5.58846 59.8877 2.7241 35.2461C5.80271 26.0777 11.3531 17.9423 18.7607 11.7407C27.8361 4.16748 39.6805 0 52.1124 0H110.776C110.776 11.6482 101.358 21.0842 89.7394 21.0842H52.1124C44.5885 21.0842 37.5258 23.522 32.223 27.9465C22.6477 35.9422 18.2221 49.591 22.667 63.4755C23.4205 65.7971 24.5895 67.9617 26.1168 69.8635C38.9776 85.9779 59.973 87.5929 74.639 73.9182C76.9765 71.7239 78.8202 69.055 80.0469 66.0899L84.9919 54.2327L104.4 62.368L99.4005 74.3453C96.6979 80.8249 92.537 86.6213 87.1493 91.1123C76.599 99.9114 64.335 104.26 52.1613 104.26Z" fill="black"/>
<path d="M234.098 15.6631C234.172 17.6579 233.847 19.6473 233.141 21.5145C232.436 23.3818 231.363 25.0892 229.988 26.5363C228.614 27.9835 226.963 29.1411 225.134 29.9414C223.306 30.7417 221.336 31.1685 219.34 31.1967C217.253 31.2686 215.174 30.9198 213.226 30.1711C211.277 29.4224 209.499 28.2889 207.998 26.8385C206.497 25.3882 205.303 23.6505 204.487 21.7289C203.672 19.8073 203.252 17.7413 203.252 15.6538C203.252 13.5664 203.672 11.5004 204.487 9.57877C205.303 7.65719 206.497 5.91931 207.998 4.46892C209.499 3.01852 211.277 1.88511 213.226 1.13636C215.174 0.387621 217.253 0.0389055 219.34 0.11079C222.154 0.0972745 224.915 0.889135 227.294 2.39277C229.674 3.89641 231.574 6.04906 232.77 8.59711L227.069 10.1837C226.294 8.82202 225.169 7.69312 223.809 6.9144C222.45 6.13567 220.906 5.73579 219.34 5.75618C218.004 5.6985 216.67 5.91174 215.419 6.38314C214.168 6.85454 213.025 7.57416 212.06 8.49892C211.094 9.42369 210.326 10.5343 209.801 11.7639C209.276 12.9935 209.005 14.3169 209.005 15.6538C209.005 16.9908 209.276 18.3139 209.801 19.5436C210.326 20.7732 211.094 21.8838 212.06 22.8085C213.025 23.7333 214.168 24.4532 215.419 24.9245C216.67 25.3959 218.004 25.6092 219.34 25.5515C221.335 25.5566 223.275 24.9001 224.857 23.685C226.439 22.47 227.574 20.7649 228.084 18.8362H217.218V13.1908H233.951C234.066 14.0095 234.116 14.8364 234.098 15.6631Z" fill="#FF2741"/>
<path d="M260.24 8.5965V30.495H254.595V28.152C253.771 29.1257 252.741 29.9041 251.58 30.4306C250.418 30.9571 249.154 31.2185 247.879 31.1961C244.9 31.0284 242.099 29.727 240.049 27.5588C237.999 25.3906 236.857 22.5202 236.857 19.5366C236.857 16.553 237.999 13.6826 240.049 11.5145C242.099 9.34627 244.9 8.04462 247.879 7.87697C249.156 7.85418 250.422 8.11749 251.584 8.64739C252.746 9.1773 253.775 9.96044 254.595 10.9395V8.5965H260.24ZM254.595 19.5366C254.595 18.3471 254.242 17.1843 253.581 16.1953C252.92 15.2063 251.981 14.4354 250.882 13.9802C249.783 13.525 248.574 13.4058 247.407 13.6379C246.241 13.87 245.169 14.4428 244.328 15.2839C243.487 16.125 242.914 17.1967 242.682 18.3633C242.45 19.53 242.569 20.7392 243.024 21.8382C243.479 22.9372 244.25 23.8764 245.239 24.5373C246.228 25.1981 247.391 25.5509 248.581 25.5509C250.176 25.5509 251.705 24.9173 252.833 23.7894C253.961 22.6615 254.595 21.1317 254.595 19.5366Z" fill="#FF2741"/>
<path d="M267.306 13.5419H264.483V8.59752H267.306V0.812256H272.97V8.59752H277.195V13.5419H272.97V22.7662C272.97 26.1238 274.427 26.253 277.195 25.5889V30.533C275.873 31.0475 274.461 31.2861 273.044 31.234C269.04 31.234 267.306 28.3745 267.306 24.2973V13.5419Z" fill="#FF2741"/>
<path d="M302.191 21.3083H286.251C286.579 22.7646 287.41 24.0587 288.598 24.9629C289.786 25.8672 291.254 26.3239 292.745 26.2527C295.077 26.2511 297.354 25.5434 299.276 24.2231L300.918 29.1305C298.41 30.5779 295.547 31.2937 292.653 31.1968C284.13 31.1968 280.385 25.9021 280.385 19.5373C280.385 13.1726 284.074 7.87769 291.675 7.87769C298.538 7.87769 302.283 12.2132 302.283 19.5373C302.283 20.0355 302.247 20.7364 302.191 21.3083ZM296.287 17.0651C296.248 16.4577 296.088 15.8647 295.815 15.3204C295.543 14.7762 295.164 14.292 294.701 13.8965C294.239 13.501 293.702 13.202 293.122 13.0175C292.542 12.833 291.931 12.7665 291.325 12.822C290.127 12.8138 288.967 13.2387 288.059 14.0185C287.15 14.7983 286.554 15.8803 286.381 17.0651H296.287Z" fill="#FF2741"/>
<path d="M204.064 38.8521C204.06 38.0814 204.285 37.3271 204.711 36.6845C205.136 36.0419 205.743 35.54 206.454 35.2425C207.165 34.9451 207.948 34.8654 208.705 35.0135C209.461 35.1616 210.156 35.531 210.702 36.0746C211.248 36.6183 211.621 37.3119 211.773 38.0675C211.924 38.8231 211.848 39.6067 211.554 40.319C211.26 41.0314 210.762 41.6403 210.121 42.0689C209.48 42.4974 208.727 42.7262 207.956 42.7262C207.446 42.7287 206.94 42.6302 206.468 42.4366C205.996 42.243 205.567 41.9582 205.205 41.5982C204.843 41.2382 204.556 40.8101 204.36 40.3389C204.164 39.8676 204.064 39.3624 204.064 38.8521ZM205.134 45.5674H210.779V67.4659H205.134V45.5674Z" fill="#FF2741"/>
<path d="M236.565 54.6812V67.3924H230.92V55.4561C230.92 52.0616 229.591 50.5118 226.676 50.5118C224.112 50.5118 221.732 52.1907 221.732 56.1572V67.4662H216.068V45.4938H221.732V47.6155C222.523 46.6408 223.539 45.873 224.693 45.3781C225.847 44.8832 227.104 44.6759 228.355 44.7743C233.392 44.7743 236.565 48.0766 236.565 54.6812Z" fill="#FF2741"/>
<path d="M222.788 98.6445V104.29H205.133V74.6058H210.778V98.5891L222.788 98.6445Z" fill="#FF2741"/>
<path d="M225.962 75.7504C225.958 74.9797 226.183 74.2254 226.609 73.5828C227.034 72.9402 227.641 72.4383 228.352 72.1408C229.063 71.8434 229.846 71.7637 230.602 71.9118C231.359 72.0599 232.054 72.4293 232.6 72.973C233.147 73.5166 233.519 74.2102 233.671 74.9658C233.823 75.7214 233.747 76.505 233.453 77.2174C233.159 77.9297 232.66 78.5386 232.019 78.9672C231.378 79.3957 230.625 79.6245 229.854 79.6246C229.344 79.627 228.838 79.5286 228.366 79.3349C227.894 79.1413 227.465 78.8565 227.103 78.4965C226.742 78.1365 226.454 77.7084 226.258 77.2372C226.062 76.7659 225.962 76.2607 225.962 75.7504ZM227.032 82.4657H232.677V104.364H227.032V82.4657Z" fill="#FF2741"/>
<path d="M239.401 82.3919C239.401 77.4292 240.637 72.485 246.466 72.485C247.687 72.4464 248.9 72.6928 250.009 73.2045V78.1489C245.065 77.1342 245.064 79.2003 245.064 82.3919H250.009V87.3362H245.064V104.29H239.401V87.3362H236.578V82.3919H239.401Z" fill="#FF2741"/>
<path d="M273.927 95.1029H257.988C258.316 96.5592 259.147 97.8532 260.335 98.7575C261.522 99.6618 262.991 100.118 264.482 100.047C266.813 100.043 269.089 99.3359 271.012 98.0177L272.655 102.925C270.147 104.372 267.283 105.088 264.389 104.991C255.866 104.991 252.121 99.6967 252.121 93.3319C252.121 86.9671 255.811 81.6722 263.412 81.6722C270.275 81.6722 274.02 86.0078 274.02 93.3319C274.02 93.83 273.983 94.531 273.927 95.1029ZM268.006 90.8596C267.969 90.2531 267.81 89.6602 267.539 89.1161C267.269 88.572 266.892 88.0876 266.431 87.6919C265.97 87.2962 265.434 86.9972 264.855 86.8125C264.277 86.6278 263.666 86.5611 263.061 86.6166C261.864 86.6084 260.704 87.0333 259.795 87.8131C258.886 88.5929 258.29 89.6749 258.117 90.8596H268.006Z" fill="#FF2741"/>
</svg>
